<?xml version="1.0" encoding="UTF-8" standalone="no"?>
<svg
   xmlns:dc="http://purl.org/dc/elements/1.1/"
   xmlns:cc="http://creativecommons.org/ns#"
   xmlns:rdf="http://www.w3.org/1999/02/22-rdf-syntax-ns#"
   xmlns:svg="http://www.w3.org/2000/svg"
   xmlns="http://www.w3.org/2000/svg"
   xmlns:xlink="http://www.w3.org/1999/xlink"
   xmlns:sodipodi="http://sodipodi.sourceforge.net/DTD/sodipodi-0.dtd"
   xmlns:inkscape="http://www.inkscape.org/namespaces/inkscape"
   width="313.67688mm"
   height="86.758057mm"
   viewBox="0 0 313.67688 86.758057"
   version="1.1"
   id="svg75"
   inkscape:version="1.0 (4035a4fb49, 2020-05-01)"
   sodipodi:docname="ajicod_institute.svg">
  <title
     id="title1348">ajicod_institute</title>
  <defs
     id="defs69">
    <rect
       x="-88.446426"
       y="125.4881"
       width="495.90475"
       height="172.35715"
       id="rect349" />
    <rect
       x="12.85119"
       y="32.505951"
       width="83.154762"
       height="51.404762"
       id="rect339" />
    <style
       id="style79">.cls-1,.cls-5{opacity:0.8;}.cls-1{fill:url(#Dégradé_sans_nom_2);}.cls-2{fill:#fff;}.cls-3{fill:#333;}.cls-4{fill:#666;}.cls-6{fill:url(#Dégradé_sans_nom_12);}.cls-7{fill:url(#Dégradé_sans_nom_12-2);}</style>
    <linearGradient
       gradientUnits="userSpaceOnUse"
       gradientTransform="rotate(180,-6283.2,1534.9)"
       y2="2735.8"
       y1="2735.8"
       x2="-12800"
       x1="-13177"
       id="Dégradé_sans_nom_2">
      <stop
         id="stop81"
         offset="0"
         stop-opacity=".8"
         stop-color="#8b00bc" />
      <stop
         id="stop83"
         offset="1"
         stop-opacity=".8"
         stop-color="#0000bc" />
    </linearGradient>
    <linearGradient
       gradientUnits="userSpaceOnUse"
       y2="283.41"
       y1="283.41"
       x2="1319.6"
       x1="1249.2"
       id="Dégradé_sans_nom_12">
      <stop
         id="stop86"
         offset="0"
         stop-opacity=".8"
         stop-color="#0000bc" />
      <stop
         id="stop88"
         offset="1"
         stop-opacity=".8"
         stop-color="#8b00bc" />
    </linearGradient>
    <linearGradient
       xlink:href="#D%C3%A9grad%C3%A9_sans_nom_12"
       y2="194.73"
       y1="194.73"
       x2="1367"
       x1="1319.5"
       id="Dégradé_sans_nom_12-2" />
    <linearGradient
       xlink:href="#D%C3%A9grad%C3%A9_sans_nom_12"
       gradientUnits="userSpaceOnUse"
       y2="283.41"
       y1="283.41"
       x2="1319.6"
       x1="1249.2"
       id="linearGradient930" />
    <linearGradient
       inkscape:collect="always"
       xlink:href="#D%C3%A9grad%C3%A9_sans_nom_2"
       id="linearGradient335"
       gradientUnits="userSpaceOnUse"
       gradientTransform="matrix(-0.26458001,0,0,-0.26458001,-3832.4692,888.11361)"
       x1="-13177"
       y1="2735.8"
       x2="-12800"
       y2="2735.8" />
  </defs>
  <sodipodi:namedview
     id="base"
     pagecolor="#ffffff"
     bordercolor="#666666"
     borderopacity="1.0"
     inkscape:pageopacity="0.0"
     inkscape:pageshadow="2"
     inkscape:zoom="0.42"
     inkscape:cx="1095.7294"
     inkscape:cy="136.3927"
     inkscape:document-units="mm"
     inkscape:current-layer="g1372"
     inkscape:document-rotation="0"
     showgrid="false"
     inkscape:snap-global="false"
     fit-margin-top="0"
     fit-margin-left="0"
     fit-margin-right="0"
     fit-margin-bottom="0"
     inkscape:window-width="1366"
     inkscape:window-height="715"
     inkscape:window-x="-8"
     inkscape:window-y="-8"
     inkscape:window-maximized="1" />
  <metadata
     id="metadata72">
    <rdf:RDF>
      <cc:Work
         rdf:about="">
        <dc:format>image/svg+xml</dc:format>
        <dc:type
           rdf:resource="http://purl.org/dc/dcmitype/StillImage" />
        <dc:title>ajicod_institute</dc:title>
      </cc:Work>
    </rdf:RDF>
  </metadata>
  <g
     inkscape:label="Layer 1"
     inkscape:groupmode="layer"
     id="layer1"
     transform="translate(571.11609,-112.07943)">
    <text
       xml:space="preserve"
       id="text337"
       style="font-style:normal;font-weight:normal;font-size:10.5833px;line-height:1.25;font-family:sans-serif;white-space:pre;shape-inside:url(#rect339);fill:#000000;fill-opacity:1;stroke:none;" />
    <g
       id="g1322"
       transform="translate(-125.3621,-8.8194444)">
      <g
         id="g1346">
        <g
           id="g1372">
          <g
             id="g93">
            <path
               class="cls-1"
               d="m -358.0707,192.76295 c -16.21082,18.16606 -42.53653,17.36174 -59.5305,10.00377 -2.68549,-1.15886 -27.02156,-12.0331 -28.11428,-29.53242 -1.79914,-28.78366 59.91415,-65.49678 85.26356,-47.62441 15.7822,11.10443 21.24842,46.01047 2.38122,67.15306 z"
               fill="url(#D%C3%A9grad%C3%A9_sans_nom_2)"
               id="path97-3"
               style="fill:url(#linearGradient335);stroke-width:0.26458" />
            <path
               class="cls-2"
               d="m -380.40919,179.66624 a 2.9421297,2.9421297 0 0 0 4.1592,0 l 11.29227,-11.29228 a 2.9421297,2.9421297 0 0 0 0,-4.1592 l -11.29227,-11.29227 a 2.9421297,2.9421297 0 0 0 -4.1592,0 2.9368381,2.9368381 0 0 0 0,4.1592 l 9.03011,9.04599 a 0.26458001,0.26458001 0 0 1 0,0.35983 l -9.03011,9.03276 a 2.9368381,2.9368381 0 0 0 0,4.14597 z"
               id="path99-2"
               style="stroke-width:0.26458" />
            <path
               class="cls-2"
               d="m -411.07931,175.50704 -9.02217,-9.03276 a 0.26458001,0.26458001 0 0 1 0,-0.35983 l 9.02217,-9.03276 a 2.9421297,2.9421297 0 0 0 0,-4.1592 2.9421297,2.9421297 0 0 0 -4.15919,0 l -11.29228,11.29227 a 2.9421297,2.9421297 0 0 0 0,4.1592 l 11.29228,11.29228 a 2.9421297,2.9421297 0 0 0 4.15919,0 2.9421297,2.9421297 0 0 0 0,-4.1592 z"
               id="path101-4"
               style="stroke-width:0.26458" />
            <path
               class="cls-2"
               d="m -388.50799,144.23897 a 3.3972073,3.3972073 0 0 0 -4.28355,2.16956 l -12.34795,37.65767 a 3.3945615,3.3945615 0 0 0 2.16692,4.2862 3.3972073,3.3972073 0 0 0 4.28355,-2.16956 l 12.34794,-37.66032 a 3.3945615,3.3945615 0 0 0 -2.16691,-4.28355 z"
               id="path103-4"
               style="stroke-width:0.26458" />
            <g
               transform="matrix(0.26458333,0,0,0.26458333,-862.65254,-98.821082)"
               id="g24">
              <path
                 style="stroke-width:0.663915"
                 class="st0"
                 d="m 2088.9829,973.25001 h -47.3504 c -5.0989,12.07661 -11.6982,27.92429 -15.8477,38.85889 h -20.5614 L 2058.237,878.35 h 13.9621 l 53.0136,133.7589 h -20.3755 z m -40.1868,-17.92571 h 32.824 l -16.2261,-46.60019 z"
                 id="path12" />
              <path
                 style="stroke-width:0.663915"
                 class="st0"
                 d="m 2220.8231,954.94587 c 0,39.24401 -31.1309,57.16303 -71.6895,57.16303 v -17.91902 c 29.9957,0 52.6352,-13.01937 52.6352,-39.24401 v -55.84189 h -35.6589 v -18.86182 h 54.7132 z"
                 id="path14" />
              <path
                 style="stroke-width:0.663915"
                 class="st0"
                 d="m 2312.6758,899.10398 h -24.525 v 93.95725 h 24.525 v 19.04767 h -68.1044 v -19.04767 h 24.525 v -93.95725 h -24.525 v -18.86182 h 68.1044 z"
                 id="path16" />
              <path
                 style="stroke-width:0.663915"
                 class="st0"
                 d="m 2350.5787,899.10398 c 11.5056,-11.88408 27.7317,-19.61869 45.6574,-19.61869 30.1816,0 53.9564,18.86847 61.5051,48.67825 h -18.8685 c -6.9844,-19.81122 -23.2104,-29.80978 -42.6366,-29.80978 -12.6409,0 -24.1466,5.47066 -32.4455,14.14803 -8.3056,8.67736 -13.5904,20.37555 -13.5904,33.95925 0,13.2119 5.2848,24.91009 13.5904,33.58082 8.2989,8.67736 19.8046,14.15466 32.4455,14.15466 19.9971,0 36.9801,-11.50564 43.7719,-31.5094 h 18.6759 c -7.542,29.99568 -31.6886,50.37788 -62.4412,50.37788 -17.9257,0 -34.1517,-7.5487 -45.6574,-19.6187 -11.3197,-12.07661 -18.8618,-28.67449 -18.8618,-46.97862 -0.01,-18.68921 7.5421,-35.28708 18.8552,-47.3637 z"
                 id="path18" />
              <path
                 style="stroke-width:0.663915"
                 class="st0"
                 d="m 2503.1795,898.34712 c 12.07,-12.26251 29.0529,-19.99712 47.543,-19.99712 18.6759,0 35.4663,7.73461 47.7288,19.99712 11.8841,12.26251 19.6187,29.05292 19.6187,47.72885 0,18.67592 -7.7346,35.46633 -19.6187,47.72884 -12.2625,12.44839 -29.0595,20.00379 -47.7288,20.00379 -18.4901,0 -35.473,-7.5554 -47.543,-20.00379 -11.8907,-12.25587 -19.6187,-29.05292 -19.6187,-47.72884 0,-18.67593 7.728,-35.46634 19.6187,-47.72885 z m 81.6881,13.5837 c -8.8699,-8.86327 -21.1324,-14.34056 -34.1518,-14.34056 -13.0193,0 -25.0959,5.47066 -33.7667,14.34056 -8.6773,8.67737 -14.1546,20.75398 -14.1546,34.15178 0,13.39117 5.4706,25.46778 14.1546,34.14515 8.6708,8.86327 20.754,14.34056 33.7667,14.34056 13.0128,0 25.2819,-5.47065 34.1518,-14.34056 8.4915,-8.67737 13.9555,-20.56144 13.9555,-34.14515 0.01,-13.5837 -5.464,-25.47441 -13.9555,-34.15178 z"
                 id="path20" />
              <path
                 style="stroke-width:0.663915"
                 class="st0"
                 d="m 2696.3323,880.24216 c 43.201,0 64.8977,33.01649 64.8977,66.03298 0,33.01649 -21.6967,65.84046 -64.8977,65.84046 h -47.357 V 880.24216 Z m 0,112.81907 c 30.5667,0 46.0359,-23.39637 46.0359,-46.79273 0,-23.39636 -15.4692,-46.97862 -46.0359,-46.97862 h -28.3027 v 93.76471 h 28.3027 z"
                 id="path22" />
            </g>
            <g
               transform="translate(1.5875)"
               id="g1298">
              <g
                 id="g68">
                <path
                   class="cls-4"
                   d="m -320.59294,185.28327 h -3.52421 v 13.50681 h 3.52421 v 2.7384 h -9.78946 v -2.7384 h 3.5242 v -13.50681 h -3.5242 v -2.71194 h 9.78946 z"
                   id="path115-4"
                   style="stroke-width:0.26458" />
                <path
                   class="cls-4"
                   d="m -309.88274,201.52848 v -18.99684 l 2.11664,0.0265 9.24707,13.36922 v -13.38245 h 2.71194 v 18.98361 h -2.16955 l -9.1677,-13.26075 v 13.26075 z"
                   id="path117-6"
                   style="stroke-width:0.26458" />
                <path
                   class="cls-4"
                   d="m -274.51898,187.45283 c -0.381,-1.70919 -2.22512,-2.43943 -3.87874,-2.41297 -1.27528,0.0264 -2.68549,0.46037 -3.43954,1.43667 a 2.4870521,2.4870521 0 0 0 -0.46037,1.7621 c 0.13493,1.9526 2.27803,2.19866 4.31265,2.38122 2.60347,0.32543 5.82076,1.0054 6.56159,4.04278 a 6.6674163,6.6674163 0 0 1 0.13493,1.24617 c 0,3.66179 -3.63268,5.77578 -7.05106,5.77578 -2.9289,0 -6.47956,-1.73564 -6.8341,-5.12491 l -0.0264,-0.52916 2.7675,-0.0529 0.0265,0.40746 v -0.0952 c 0.1905,1.7621 2.33095,2.68284 4.0957,2.68284 2.03197,0 4.25709,-1.13769 4.25709,-3.09029 a 2.9527129,2.9527129 0 0 0 -0.082,-0.65087 c -0.32543,-1.43667 -2.27803,-1.68273 -4.17507,-1.87058 -2.95801,-0.29898 -6.4293,-0.94984 -6.72563,-4.91061 v 0.0291 a 5.1460812,5.1460812 0 0 1 1.02922,-3.60887 c 1.27528,-1.65363 3.55331,-2.52145 5.74932,-2.52145 2.92891,0 5.96628,1.51869 6.45576,4.98998 z"
                   id="path119-4"
                   style="stroke-width:0.26458" />
                <path
                   class="cls-4"
                   d="m -257.98008,201.6105 v -16.51773 h -5.74933 v -2.5479 h 14.2106 v 2.5479 h -5.72287 v 16.51773 z"
                   id="path121-0"
                   style="stroke-width:0.26458" />
                <path
                   class="cls-4"
                   d="m -229.41867,185.28327 h -3.52685 v 13.50681 h 3.52685 v 2.7384 h -9.78946 v -2.7384 h 3.52685 v -13.50681 h -3.52685 v -2.71194 h 9.78946 z"
                   id="path123-6"
                   style="stroke-width:0.26458" />
                <path
                   class="cls-4"
                   d="m -213.51741,201.6105 v -16.51773 h -5.75197 v -2.5479 h 14.21059 v 2.5479 h -5.72287 v 16.51773 z"
                   id="path125-2"
                   style="stroke-width:0.26458" />
                <path
                   class="cls-4"
                   d="m -194.38828,195.83208 v -13.26075 h 2.76751 v 13.28985 c 0,2.08754 2.24893,3.11675 4.25709,3.11675 2.00816,0 4.23328,-1.05832 4.23328,-3.14585 v -13.26075 h 2.76486 v 13.28985 c 0,3.84964 -3.74116,5.8578 -6.99549,5.8578 -3.34165,0 -7.02725,-2.00816 -7.02725,-5.8869 z"
                   id="path127-5"
                   style="stroke-width:0.26458" />
                <path
                   class="cls-4"
                   d="m -166.60738,201.6105 v -16.51773 h -5.74932 v -2.5479 h 14.20265 v 2.5479 h -5.71492 v 16.51773 z"
                   id="path129-9"
                   style="stroke-width:0.26458" />
                <g
                   style="font-style:normal;font-weight:normal;font-size:26.5637px;line-height:1.25;font-family:sans-serif;fill:#666666;fill-opacity:1;stroke:none;stroke-width:0.664094"
                   id="text345"
                   aria-label="E">
                  <path
                     id="path55"
                     style="fill:#666666;fill-opacity:1;stroke-width:0.664094"
                     d="m -137.92246,201.60269 h -12.72412 v -19.31316 h 12.72412 v 2.28282 h -10.15595 v 5.29199 h 10.15595 v 2.28282 h -10.15595 v 7.17271 h 10.15595 z" />
                </g>
              </g>
            </g>
          </g>
        </g>
      </g>
    </g>
    <text
       xml:space="preserve"
       id="text347"
       style="font-style:normal;font-weight:normal;font-size:10.5833px;line-height:1.25;font-family:sans-serif;white-space:pre;shape-inside:url(#rect349);fill:#000000;fill-opacity:1;stroke:none;" />
  </g>
</svg>
