<?xml version="1.0" encoding="UTF-8"?>
<svg width="99.65mm" height="86.758mm" version="1.1" viewBox="0 0 99.65 86.758" xmlns="http://www.w3.org/2000/svg" xmlns:cc="http://creativecommons.org/ns#" xmlns:dc="http://purl.org/dc/elements/1.1/" xmlns:rdf="http://www.w3.org/1999/02/22-rdf-syntax-ns#" xmlns:xlink="http://www.w3.org/1999/xlink">
 <title>AjiCod</title>
 <defs>
  <style>.cls-1,.cls-5{opacity:0.8;}.cls-1{fill:url(#Dégradé_sans_nom_2);}.cls-2{fill:#fff;}.cls-3{fill:#333;}.cls-4{fill:#666;}.cls-6{fill:url(#Dégradé_sans_nom_12);}.cls-7{fill:url(#Dégradé_sans_nom_12-2);}</style>
  <linearGradient id="Dégradé_sans_nom_2" x1="-13177" x2="-12800" y1="2735.8" y2="2735.8" gradientTransform="matrix(-.26458 0 0 -.26458 -3567.6 889.39)" gradientUnits="userSpaceOnUse">
   <stop stop-color="#8b00bc" stop-opacity=".8" offset="0"/>
   <stop stop-color="#0000bc" stop-opacity=".8" offset="1"/>
  </linearGradient>
  <linearGradient id="Dégradé_sans_nom_12" x1="1249.2" x2="1319.6" y1="283.41" y2="283.41" gradientUnits="userSpaceOnUse">
   <stop stop-color="#0000bc" stop-opacity=".8" offset="0"/>
   <stop stop-color="#8b00bc" stop-opacity=".8" offset="1"/>
  </linearGradient>
  <linearGradient id="Dégradé_sans_nom_12-2" x1="1319.5" x2="1367" y1="194.73" y2="194.73" gradientTransform="matrix(.26458 0 0 .26458 -94.595 -66.449)" xlink:href="#D%C3%A9grad%C3%A9_sans_nom_12"/>
 </defs>
 <metadata>
  <rdf:RDF>
   <cc:Work rdf:about="">
    <dc:format>image/svg+xml</dc:format>
    <dc:type rdf:resource="http://purl.org/dc/dcmitype/StillImage"/>
    <dc:title>AjiCod</dc:title>
   </cc:Work>
  </rdf:RDF>
 </metadata>
 <g transform="translate(-33.826 -86.645)">
  <g transform="translate(214.69 -35.53)" stroke-width=".26458">
   <path class="cls-1" d="m-93.181 194.04c-16.211 18.166-42.537 17.362-59.531 10.004-2.6855-1.1589-27.022-12.033-28.114-29.532-1.7992-28.784 59.914-65.497 85.264-47.624 15.782 11.104 21.248 46.01 2.3812 67.153z" fill="url(#D%C3%A9grad%C3%A9_sans_nom_2)"/>
   <path class="cls-2" d="m-115.52 180.94a2.9421 2.9421 0 0 0 4.1592 0l11.292-11.292a2.9421 2.9421 0 0 0 0-4.1592l-11.292-11.292a2.9421 2.9421 0 0 0-4.1592 0 2.9368 2.9368 0 0 0 0 4.1592l9.0301 9.046a0.26458 0.26458 0 0 1 0 0.35983l-9.0301 9.0328a2.9368 2.9368 0 0 0 0 4.146z"/>
   <path class="cls-2" d="m-146.19 176.78-9.0222-9.0328a0.26458 0.26458 0 0 1 0-0.35983l9.0222-9.0328a2.9421 2.9421 0 0 0 0-4.1592 2.9421 2.9421 0 0 0-4.1592 0l-11.292 11.292a2.9421 2.9421 0 0 0 0 4.1592l11.292 11.292a2.9421 2.9421 0 0 0 4.1592 0 2.9421 2.9421 0 0 0 0-4.1592z"/>
   <path class="cls-2" d="m-123.62 145.51a3.3972 3.3972 0 0 0-4.2836 2.1696l-12.348 37.658a3.3946 3.3946 0 0 0 2.1669 4.2862 3.3972 3.3972 0 0 0 4.2836-2.1696l12.348-37.66a3.3946 3.3946 0 0 0-2.1669-4.2836z"/>
  </g>
 </g>
</svg>
